<svg xmlns="http://www.w3.org/2000/svg" width="28.5" height="22.075" viewBox="0 0 28.5 22.075"><defs><style>.a{fill:#00a8e8;}</style></defs><g transform="translate(0 -44.252)"><g transform="translate(0 44.252)"><path class="a" d="M1.233,179.318a1.233,1.233,0,1,0,0,2.465H6.424v-2.465Z" transform="translate(0 -169.513)"/><path class="a" d="M106.452,44.252H92.593a4.113,4.113,0,0,0-4.11,4.108v5.7H99.588l-2.375-2.375a1.233,1.233,0,1,1,1.744-1.743l4.48,4.48a1.23,1.23,0,0,1,.265.4,1.246,1.246,0,0,1,.1.477,1.218,1.218,0,0,1-.092.465,1.255,1.255,0,0,1-.266.4l-4.483,4.482A1.233,1.233,0,1,1,97.213,58.9l2.375-2.375H88.483v5.7a4.113,4.113,0,0,0,4.11,4.107h13.859a4.112,4.112,0,0,0,4.108-4.107V48.361A4.112,4.112,0,0,0,106.452,44.252Z" transform="translate(-82.059 -44.252)"/></g></g></svg>